<?xml version="1.0" encoding="utf-8"?>
<!-- Generator: Adobe Illustrator 25.4.1, SVG Export Plug-In . SVG Version: 6.00 Build 0)  -->
<svg version="1.1" id="Layer_1" xmlns="http://www.w3.org/2000/svg" xmlns:xlink="http://www.w3.org/1999/xlink" x="0px" y="0px"
	 viewBox="0 0 235.6 40.9" style="enable-background:new 0 0 235.6 40.9;" xml:space="preserve">
<style type="text/css">
	.st0{opacity:0.5;fill:#FFFFFF;}
	.st1{fill:#FFFFFF;}
</style>
<g>
	<path class="st0" d="M69,10c-0.3,0.1-0.5,0.4-0.6,0.7c-0.1,0.4-0.2,0.9-0.2,1.7v15.3c0,0.8,0.1,1.3,0.2,1.7
		c0.1,0.4,0.3,0.6,0.6,0.7c0.3,0.1,0.8,0.2,1.5,0.2V31C69.5,31,68,31,65.9,31c-2.1,0-3.7,0-4.9,0.1v-0.6c0.7,0,1.2-0.1,1.5-0.2
		c0.3-0.1,0.5-0.4,0.6-0.7c0.1-0.4,0.2-0.9,0.2-1.7v-7.4h-8.2v7.4c0,0.8,0.1,1.3,0.2,1.7c0.1,0.4,0.3,0.6,0.6,0.7
		c0.3,0.1,0.8,0.2,1.5,0.2V31C56.3,31,54.8,31,52.8,31c-2.2,0-3.8,0-4.9,0.1v-0.6c0.7,0,1.2-0.1,1.5-0.2c0.3-0.1,0.5-0.4,0.6-0.7
		c0.1-0.4,0.2-0.9,0.2-1.7V12.4c0-0.8-0.1-1.3-0.2-1.7c-0.1-0.4-0.3-0.6-0.6-0.7c-0.3-0.1-0.8-0.2-1.5-0.2V9.1
		c1,0.1,2.7,0.1,4.9,0.1c2,0,3.6,0,4.7-0.1v0.6c-0.7,0-1.2,0.1-1.5,0.2c-0.3,0.1-0.5,0.4-0.6,0.7c-0.1,0.4-0.2,0.9-0.2,1.7v7.3h8.2
		v-7.3c0-0.8-0.1-1.3-0.2-1.7c-0.1-0.4-0.3-0.6-0.6-0.7c-0.3-0.1-0.8-0.2-1.5-0.2V9.1c1.1,0.1,2.8,0.1,4.9,0.1c2.1,0,3.7,0,4.7-0.1
		v0.6C69.9,9.8,69.4,9.9,69,10"/>
	<path class="st0" d="M91.2,29.9c0.3,0.3,0.7,0.5,1,0.5v0.6C91,31,89.4,31,87.5,31c-2.1,0-3.7,0-4.7,0.1v-0.6c0.8,0,1.3-0.1,1.7-0.3
		c0.3-0.2,0.5-0.4,0.5-0.8c0-0.3-0.1-0.8-0.4-1.5l-1.9-5.1h-6.7l-0.8,2.1c-0.6,1.5-0.8,2.6-0.8,3.4c0,0.8,0.2,1.3,0.7,1.6
		c0.5,0.3,1.1,0.5,2.1,0.5v0.6C75.7,31,74.5,31,73.3,31c-0.9,0-1.7,0-2.4,0.1v-0.6c1-0.2,1.9-1.3,2.7-3.3l7.1-18.1
		c0.3,0,0.7,0,1.1,0c0.4,0,0.8,0,1.1,0l7.5,19.4C90.6,29.1,90.9,29.6,91.2,29.9 M79.5,13.8l-3.2,8.4h6.3L79.5,13.8z"/>
	<path class="st0" d="M99.5,27.6c0,0.8,0.1,1.4,0.3,1.8c0.2,0.4,0.5,0.6,0.9,0.8c0.4,0.1,1.2,0.2,2.1,0.2V31
		c-2.5-0.1-4.4-0.1-5.7-0.1c-0.6,0-2.2,0-4.9,0.1v-0.6c0.7,0,1.2-0.1,1.5-0.2c0.3-0.1,0.5-0.4,0.6-0.7c0.1-0.4,0.2-0.9,0.2-1.7V12.4
		c0-0.8-0.1-1.3-0.2-1.7c-0.1-0.4-0.3-0.6-0.6-0.7c-0.3-0.1-0.8-0.2-1.5-0.2V9.1c1,0.1,2.6,0.1,4.7,0.1c0.8,0,1.7,0,2.7,0
		c1,0,1.7,0,2.1,0c1.9,0,3.5,0.3,4.7,0.8c1.3,0.5,2.2,1.2,2.9,2.1c0.6,0.9,1,2,1,3.2c0,1.1-0.3,2.2-0.9,3.3c-0.6,1-1.6,1.9-2.9,2.6
		c-1.4,0.7-3.2,1-5.5,1h-1.6V27.6z M104.3,20c0.6-1.1,1-2.5,1-4.4c0-2-0.3-3.5-0.9-4.4c-0.6-0.9-1.6-1.4-2.9-1.4
		c-0.6,0-1,0.1-1.2,0.2c-0.3,0.1-0.4,0.4-0.5,0.8c-0.1,0.4-0.1,0.9-0.1,1.7v9.2h1.3C102.5,21.6,103.7,21,104.3,20"/>
	<path class="st0" d="M119,27.6c0,0.8,0.1,1.4,0.3,1.8c0.2,0.4,0.5,0.6,0.9,0.8c0.4,0.1,1.2,0.2,2.1,0.2V31
		c-2.5-0.1-4.4-0.1-5.7-0.1c-0.6,0-2.2,0-4.9,0.1v-0.6c0.7,0,1.2-0.1,1.5-0.2c0.3-0.1,0.5-0.4,0.6-0.7c0.1-0.4,0.2-0.9,0.2-1.7V12.4
		c0-0.8-0.1-1.3-0.2-1.7c-0.1-0.4-0.3-0.6-0.6-0.7c-0.3-0.1-0.8-0.2-1.5-0.2V9.1c1,0.1,2.6,0.1,4.7,0.1c0.8,0,1.7,0,2.8,0
		c1,0,1.7,0,2.1,0c1.9,0,3.4,0.3,4.7,0.8c1.3,0.5,2.2,1.2,2.9,2.1c0.6,0.9,1,2,1,3.2c0,1.1-0.3,2.2-0.9,3.3c-0.6,1-1.6,1.9-2.9,2.6
		c-1.4,0.7-3.2,1-5.5,1H119V27.6z M123.8,20c0.6-1.1,1-2.5,1-4.4c0-2-0.3-3.5-0.9-4.4c-0.6-0.9-1.6-1.4-2.9-1.4
		c-0.6,0-1,0.1-1.2,0.2c-0.3,0.1-0.4,0.4-0.5,0.8c-0.1,0.4-0.1,0.9-0.1,1.7v9.2h1.3C122,21.6,123.2,21,123.8,20"/>
	<path class="st0" d="M146.8,9.2c0.9,0,1.7,0,2.4-0.1v0.6c-0.5,0.2-0.9,0.6-1.4,1.1c-0.5,0.6-1,1.4-1.5,2.4l-3.7,7.2v7.2
		c0,0.8,0.1,1.3,0.2,1.7c0.1,0.4,0.3,0.6,0.6,0.7c0.3,0.1,0.8,0.2,1.5,0.2v0.6c-1.1-0.1-2.7-0.1-4.8-0.1c-2.2,0-3.8,0-4.8,0.1v-0.6
		c0.7,0,1.2-0.1,1.5-0.2c0.3-0.1,0.5-0.4,0.6-0.7c0.1-0.4,0.2-0.9,0.2-1.7v-5.2l-6-11c-0.6-1.2-1.2-1.7-1.8-1.7V9.1
		c0.9,0.1,2.1,0.1,3.6,0.1c1.9,0,3.9,0,5.8-0.1v0.6c-0.7,0-1.3,0.1-1.7,0.2c-0.4,0.1-0.6,0.4-0.6,0.7c0,0.2,0.1,0.4,0.2,0.7l4.7,9.1
		l2.4-4.8c0.8-1.6,1.2-2.9,1.2-3.8c0-0.7-0.2-1.2-0.7-1.5c-0.4-0.3-1.1-0.5-1.9-0.5V9.1C144.3,9.2,145.6,9.2,146.8,9.2"/>
	<path class="st1" d="M171.3,10c-0.3,0.1-0.5,0.4-0.6,0.7c-0.1,0.4-0.2,0.9-0.2,1.7v15.3c0,0.8,0.1,1.3,0.2,1.7
		c0.1,0.4,0.3,0.6,0.6,0.7c0.3,0.1,0.8,0.2,1.5,0.2V31c-1-0.1-2.6-0.1-4.7-0.1c-2.1,0-3.7,0-4.9,0.1v-0.6c0.7,0,1.2-0.1,1.5-0.2
		c0.3-0.1,0.5-0.4,0.7-0.7c0.1-0.4,0.2-0.9,0.2-1.7v-7.4h-8.2v7.4c0,0.8,0.1,1.3,0.2,1.7c0.1,0.4,0.3,0.6,0.6,0.7
		c0.3,0.1,0.8,0.2,1.5,0.2V31c-1.1-0.1-2.7-0.1-4.7-0.1c-2.2,0-3.8,0-4.9,0.1v-0.6c0.7,0,1.2-0.1,1.5-0.2c0.3-0.1,0.5-0.4,0.6-0.7
		c0.1-0.4,0.2-0.9,0.2-1.7V12.4c0-0.8-0.1-1.3-0.2-1.7c-0.1-0.4-0.3-0.6-0.6-0.7c-0.3-0.1-0.8-0.2-1.5-0.2V9.1
		c1,0.1,2.7,0.1,4.9,0.1c2,0,3.6,0,4.7-0.1v0.6c-0.7,0-1.2,0.1-1.5,0.2c-0.3,0.1-0.5,0.4-0.6,0.7c-0.1,0.4-0.2,0.9-0.2,1.7v7.3h8.2
		v-7.3c0-0.8-0.1-1.3-0.2-1.7c-0.1-0.4-0.3-0.6-0.7-0.7c-0.3-0.1-0.8-0.2-1.5-0.2V9.1c1.1,0.1,2.8,0.1,4.9,0.1c2.1,0,3.7,0,4.7-0.1
		v0.6C172.1,9.8,171.6,9.9,171.3,10"/>
	<path class="st1" d="M191.7,26.4c0,1.9,0.1,3.5,0.2,4.7c-1.4-0.1-3.8-0.1-7.1-0.1c-4.5,0-7.9,0-10.1,0.1v-0.6
		c0.7,0,1.2-0.1,1.5-0.2c0.3-0.1,0.5-0.4,0.6-0.7c0.1-0.4,0.2-0.9,0.2-1.7V12.4c0-0.8-0.1-1.3-0.2-1.7c-0.1-0.4-0.3-0.6-0.6-0.7
		c-0.3-0.1-0.8-0.2-1.5-0.2V9.1c2.2,0.1,5.6,0.1,10.1,0.1c3,0,5.2,0,6.5-0.1c-0.1,1.7-0.2,3.2-0.2,4.6c0,0.9,0,1.6,0.1,2.1h-0.7
		c-0.2-1.5-0.5-2.7-1-3.5c-0.4-0.9-1-1.5-1.6-1.9c-0.7-0.4-1.5-0.6-2.5-0.6h-1.3c-0.6,0-1.1,0.1-1.4,0.2c-0.3,0.1-0.5,0.3-0.6,0.6
		c-0.1,0.3-0.2,0.8-0.2,1.4v7.7h1c1.1,0,1.9-0.4,2.5-1.2c0.6-0.8,1-1.8,1.2-2.9h0.7c-0.1,1-0.1,2-0.1,2.9l0,1.5c0,1,0.1,2.5,0.2,4.4
		h-0.7c-0.4-2.7-1.7-4.1-3.8-4.1h-1v7.8c0,0.7,0,1.1,0.2,1.4c0.1,0.3,0.3,0.5,0.6,0.6c0.3,0.1,0.8,0.2,1.4,0.2h1.5
		c1.4,0,2.6-0.5,3.5-1.5c0.9-1,1.5-2.7,1.9-5.1h0.7C191.7,24.4,191.7,25.3,191.7,26.4"/>
	<path class="st1" d="M212.9,29.9c0.3,0.3,0.7,0.5,1,0.5v0.6c-1.2-0.1-2.8-0.1-4.7-0.1c-2.1,0-3.7,0-4.7,0.1v-0.6
		c0.8,0,1.3-0.1,1.7-0.3c0.3-0.2,0.5-0.4,0.5-0.8c0-0.3-0.1-0.8-0.4-1.5l-1.9-5.1h-6.7l-0.8,2.1c-0.6,1.5-0.8,2.6-0.8,3.4
		c0,0.8,0.2,1.3,0.7,1.6c0.5,0.3,1.1,0.5,2.1,0.5v0.6c-1.4-0.1-2.7-0.1-3.8-0.1c-0.9,0-1.7,0-2.4,0.1v-0.6c1-0.2,1.9-1.3,2.7-3.3
		l7.1-18.1c0.3,0,0.7,0,1.1,0c0.4,0,0.8,0,1.1,0l7.5,19.4C212.3,29.1,212.6,29.6,212.9,29.9 M201.2,13.8l-3.2,8.4h6.3L201.2,13.8z"
		/>
	<path class="st1" d="M217.7,9.3l1,0c2.9-0.1,4.5-0.1,4.8-0.1c4,0,7,0.9,9,2.7c2,1.8,3,4.5,3,8c0,2.2-0.5,4.2-1.5,5.9
		c-1,1.7-2.4,3-4.2,3.9c-1.9,0.9-4.1,1.4-6.6,1.4c-0.3,0-1,0-2.1,0c-1.1,0-1.9,0-2.4,0c-2.1,0-3.7,0-4.8,0.1v-0.6
		c0.7,0,1.2-0.1,1.5-0.2c0.3-0.1,0.5-0.4,0.6-0.7c0.1-0.4,0.2-0.9,0.2-1.7V12.4c0-0.8-0.1-1.3-0.2-1.7c-0.1-0.4-0.3-0.6-0.6-0.7
		c-0.3-0.1-0.8-0.2-1.5-0.2V9.1C215.3,9.2,216.5,9.3,217.7,9.3 M221.4,29.5c0.1,0.4,0.3,0.6,0.7,0.8c0.3,0.1,0.8,0.2,1.5,0.2
		c1.7,0,3.1-0.4,4.1-1.2c1-0.8,1.7-2,2.2-3.5c0.4-1.5,0.7-3.5,0.7-5.8c0-2.3-0.2-4.3-0.7-5.8c-0.5-1.5-1.2-2.6-2.2-3.4
		c-1-0.7-2.4-1.1-4-1.1c-0.6,0-1.1,0.1-1.4,0.2c-0.3,0.1-0.5,0.4-0.7,0.8c-0.1,0.4-0.2,0.9-0.2,1.7v15.5
		C221.2,28.6,221.3,29.1,221.4,29.5"/>
</g>
<polygon class="st0" points="21.6,0 21.6,1.1 25.3,1.1 25.3,16.1 12.3,18.9 12.3,1.1 15.9,1.1 15.9,0 0,0 0,1.1 3.7,1.1 3.7,22.6 
	33.8,15.7 33.8,1.1 37.5,1.1 37.5,0 "/>
<polygon class="st1" points="33.8,39.7 33.8,18.8 3.7,25.7 3.7,39.7 0,39.7 0,40.9 15.9,40.9 15.9,39.7 12.3,39.7 12.3,25.4 
	25.3,22.5 25.3,39.7 21.6,39.7 21.6,40.9 37.5,40.9 37.5,39.7 "/>
</svg>
